<svg width="200" height="47" viewBox="0 0 200 47" fill="none" xmlns="http://www.w3.org/2000/svg">
<path fill-rule="evenodd" clip-rule="evenodd" d="M179.28 31.9674H183.685V17.9842C183.685 15.8719 184.334 14.2431 185.428 13.1434C186.523 12.0435 188.107 11.4291 190.062 11.4291C192.013 11.4291 193.367 12.0395 194.246 13.1129C195.137 14.2016 195.595 15.8339 195.595 17.9842V31.9674H200V17.2729C200 13.7972 199.056 11.3503 197.456 9.7744C195.858 8.20035 193.67 7.55739 191.307 7.55739C187.185 7.55739 184.813 9.53028 183.685 11.2509V0H179.28V31.9674ZM84.4706 32.2075H88.8758V18.2243C88.8758 16.112 89.5247 14.4832 90.6193 13.3835C91.7141 12.2836 93.2983 11.6692 95.2531 11.6692C97.2038 11.6692 98.5584 12.2796 99.437 13.3529C100.328 14.4417 100.786 16.074 100.786 18.2243V32.2075H105.191V17.513C105.191 14.0372 104.247 11.5904 102.647 10.0145C101.049 8.44044 98.8606 7.79749 96.4979 7.79749C92.3756 7.79749 90.0043 9.77037 88.8758 11.491V0.2401H84.4706V32.2075ZM113.716 11.9925V25.7049C113.716 26.9225 113.927 27.6484 114.335 28.0816C114.735 28.508 115.42 28.7481 116.626 28.7481C117.202 28.7481 117.576 28.7478 118.167 28.6634L118.651 28.5942V32.1802L118.319 32.254C117.485 32.4392 116.609 32.5308 115.648 32.5308C113.865 32.5308 112.268 32.1551 111.114 31.161C109.949 30.1563 109.311 28.5872 109.311 26.3718V11.9925H105.577V8.25421H109.311V2.47503H113.716V8.25421H118.295V11.9925H113.716ZM157.957 24.7574H161.971L162.023 25.1225C162.225 26.5615 162.975 27.5077 164.025 28.1086C165.093 28.7199 166.49 28.9806 167.96 28.9806C169.497 28.9806 170.828 28.6974 171.762 28.1072C172.669 27.5331 173.226 26.6556 173.226 25.3596C173.226 24.3434 172.887 23.7169 172.3 23.2606C171.679 22.7777 170.749 22.46 169.509 22.172L169.508 22.1718L165.149 21.1489C163.059 20.6491 161.442 19.8542 160.344 18.7388C159.237 17.6132 158.689 16.1917 158.689 14.5125C158.689 12.3296 159.623 10.6215 161.259 9.47492C162.877 8.34096 165.152 7.77547 167.826 7.77547C170.48 7.77547 172.737 8.34153 174.374 9.54743C176.026 10.7644 177.001 12.5988 177.141 15.0215L177.167 15.4703H173.333L173.276 15.1137C173.047 13.7038 172.439 12.8078 171.551 12.2487C170.643 11.6767 169.392 11.4249 167.826 11.4249C166.17 11.4249 164.956 11.6996 164.168 12.2121C163.41 12.7045 163.005 13.442 163.005 14.5125C163.005 15.3052 163.237 15.9078 163.754 16.3922C164.29 16.8944 165.171 17.3058 166.54 17.6102L166.543 17.6108L170.856 18.6336L170.857 18.6338C172.785 19.0821 174.499 19.6891 175.734 20.7219C176.994 21.7758 177.72 23.2438 177.72 25.3151C177.72 28.0049 176.48 29.8596 174.613 31.0211C172.771 32.1677 170.337 32.63 167.915 32.63C165.22 32.63 162.803 32.0763 161.019 30.8616C159.217 29.6344 158.095 27.7543 157.978 25.2012L157.957 24.7574ZM144.154 32.6747C148.276 32.6747 150.647 30.7018 151.776 28.9812V32.2301H156.18L156.226 8.26469H151.822L151.776 22.8998C151.646 24.8029 150.951 26.2674 149.864 27.2577C148.773 28.2517 147.247 28.803 145.399 28.803C143.448 28.803 142.093 28.1926 141.215 27.1192C140.324 26.0306 139.866 24.3985 139.866 22.2485V22.2479L139.912 8.26469H135.506L135.461 22.9579V22.9592C135.461 26.4349 136.405 28.8817 138.005 30.4577C139.602 32.0317 141.791 32.6747 144.154 32.6747ZM55.6543 0.685618H52.096V4.24386H55.6543V0.685618ZM51.74 32.1979V8.23242H56.1452V32.1979H51.74ZM120.379 32.291V8.32551H124.784V11.954C125.914 9.93571 128.119 8.05878 131.74 8.05878C132.332 8.05878 133.009 8.10316 133.608 8.30283L133.898 8.39955V12.223L133.409 12.1478C132.85 12.0619 132.339 12.0194 131.784 12.0194C129.551 12.0194 127.816 12.7712 126.636 14.0748C125.452 15.3837 124.784 17.2951 124.784 19.6859V32.291H120.379ZM28.2964 32.1651H32.7201V18.1109C32.7201 15.9871 33.3726 14.3492 34.4734 13.2433C35.5745 12.1371 37.1675 11.5193 39.133 11.5193C41.0944 11.5193 42.4567 12.1331 43.3405 13.2127C44.2369 14.3077 44.6969 15.9492 44.6969 18.1109V32.1651H49.1206V17.3959C49.1206 13.9024 48.1717 11.4434 46.5642 9.85976C44.9585 8.278 42.7589 7.63179 40.3843 7.63179C36.2363 7.63179 33.8526 9.61933 32.7201 11.3498V8.07867H28.2964V32.1651ZM76.8086 9.65051C74.8976 8.40378 72.6257 7.80712 70.3109 7.80712C67.3524 7.80712 64.4629 8.78228 62.3101 10.8422C60.1522 12.907 58.7727 16.025 58.7727 20.2344C58.7727 25.3015 60.7729 28.7789 63.6984 30.7423L58.539 35.9017V38.9628L74.3057 38.9629L69.367 43.9016L72.0059 46.5405L80.2543 38.292V35.2309L64.4876 35.2309L67.3886 32.3299C68.338 32.5524 69.3203 32.6617 70.3109 32.6617C73.2695 32.6617 76.159 31.6865 78.3118 29.6265C80.4696 27.5618 81.8492 24.4437 81.8492 20.2344C81.8492 17.2423 81.1526 14.7994 79.97 12.8923V12.7211C79.97 11.8372 80.6866 11.1206 81.5705 11.1206H81.9949V7.05567H81.5705C79.5727 7.05567 77.817 8.08986 76.8086 9.65051ZM65.2303 26.7623C66.5667 28.135 68.3845 28.79 70.3109 28.79C72.2139 28.79 74.0207 28.1358 75.3521 26.7629C76.682 25.3913 77.5774 23.261 77.5774 20.2344C77.5774 17.2077 76.682 15.0655 75.351 13.6826C74.0188 12.2984 72.212 11.6343 70.3109 11.6343C68.3864 11.6343 66.5686 12.2991 65.2314 13.6831C63.8954 15.0659 63 17.2077 63 20.2344C63 23.2611 63.8954 25.391 65.2303 26.7623Z" fill="white"/>
<path fill-rule="evenodd" clip-rule="evenodd" d="M19.9992 8.2655H9.00159L0 23.0823H7.95508V31.9839L23.6832 17.1671H14.5912L19.9992 8.2655Z" fill="#FFC500"/>
</svg>
