<?xml version="1.0" encoding="UTF-8"?>
<svg id="Layer_1" data-name="Layer 1" xmlns="http://www.w3.org/2000/svg" xmlns:xlink="http://www.w3.org/1999/xlink" version="1.1" viewBox="0 0 921.5 340.8">
  <defs>
    <style>
      .cls-1 {
        fill: #010101;
      }

      .cls-1, .cls-2, .cls-3, .cls-4, .cls-5, .cls-6 {
        stroke-width: 0px;
      }

      .cls-2 {
        fill: none;
      }

      .cls-3 {
        fill: #001f60;
      }

      .cls-4 {
        fill: url(#linear-gradient);
      }

      .cls-5 {
        fill: url(#linear-gradient-2);
      }

      .cls-6 {
        fill: url(#linear-gradient-3);
      }
    </style>
    <linearGradient id="linear-gradient" x1="144.3" y1="167.2" x2="323.3" y2="121" gradientUnits="userSpaceOnUse">
      <stop offset="0" stop-color="#fdbe19"/>
      <stop offset="0" stop-color="#fcbf18"/>
      <stop offset="0" stop-color="#f6cb11"/>
      <stop offset=".2" stop-color="#f5d00f"/>
      <stop offset=".2" stop-color="#f2cf11"/>
      <stop offset=".3" stop-color="#c2ce3e"/>
      <stop offset=".3" stop-color="#a5cd5a"/>
      <stop offset=".4" stop-color="#9acd65"/>
      <stop offset=".5" stop-color="#49b2a4"/>
      <stop offset=".6" stop-color="#14a0cd"/>
      <stop offset=".7" stop-color="#009ade"/>
    </linearGradient>
    <linearGradient id="linear-gradient-2" x1="221.4" y1="196.1" x2="61.7" y2="225.9" gradientUnits="userSpaceOnUse">
      <stop offset="0" stop-color="#fdbe19"/>
      <stop offset="0" stop-color="#fcbf18"/>
      <stop offset="0" stop-color="#f6cb11"/>
      <stop offset=".2" stop-color="#f5d00f"/>
      <stop offset=".2" stop-color="#dccf26"/>
      <stop offset=".3" stop-color="#accd53"/>
      <stop offset=".4" stop-color="#9acd65"/>
      <stop offset=".5" stop-color="#49b2a4"/>
      <stop offset=".6" stop-color="#14a0cd"/>
      <stop offset=".7" stop-color="#009ade"/>
    </linearGradient>
    <linearGradient id="linear-gradient-3" x1="48.5" y1="177.7" x2="264.4" y2="177.7" gradientUnits="userSpaceOnUse">
      <stop offset="0" stop-color="#009ade"/>
      <stop offset="0" stop-color="#109cca"/>
      <stop offset=".2" stop-color="#3aa396"/>
      <stop offset=".4" stop-color="#7eae44"/>
      <stop offset=".4" stop-color="#84af3e"/>
      <stop offset=".5" stop-color="#8ebb3c"/>
      <stop offset=".7" stop-color="#9ecc3b"/>
      <stop offset=".7" stop-color="#b3d12d"/>
      <stop offset=".8" stop-color="#dada14"/>
      <stop offset=".8" stop-color="#f3df05"/>
      <stop offset=".9" stop-color="#fce200"/>
      <stop offset="1" stop-color="#fdbe19"/>
    </linearGradient>
  </defs>
  <path class="cls-3" d="M313.1,185.1l-3,3-129.2,129.2c-6,6-15.7,6-21.6,0L26.9,185.1c-6-6-6-15.7,0-21.6l21.6-21.6,12.8-12.8L159.2,31.2c6-5.9,15.7-5.9,21.6,0l132.3,132.3c5.9,6,5.9,15.7,0,21.6Z"/>
  <g>
    <path class="cls-4" d="M309.6,188.6l-12.6,12.6-84.4-84.2c-8.3-8.3-19.3-12.9-31-12.9s-22.8,4.6-31,12.9c-17.1,17.1-17.1,45,0,62.1l20.8,20.8c3.5,3.5,3.5,9.1,0,12.6-1.7,1.7-4,2.6-6.3,2.6s-4.6-.9-6.3-2.6l-20.8-20.8c-24-24.1-24-63.2,0-87.2,11.6-11.6,27.1-18.1,43.6-18.1s32,6.4,43.6,18.1l84.5,84.2Z"/>
    <path class="cls-5" d="M164.8,269.3c-16,0-31.8-5.8-43.5-17.6l-58.4-58.4c-3.5-3.5-3.5-9.1,0-12.6,3.5-3.5,9.1-3.5,12.6,0l58.4,58.4c16.7,16.8,46.7,16.2,64-1.2,8.3-8.3,12.8-19.3,12.7-31.2,0-11.9-4.7-23-13.1-31.3l-20.7-20.7c-3.5-3.5-3.5-9.1,0-12.6s9.1-3.5,12.6,0l20.7,20.7c11.7,11.7,18.1,27.2,18.3,43.7.1,16.6-6.2,32.2-17.9,43.9-12.5,12.5-29.1,18.7-45.7,18.7Z"/>
    <path class="cls-6" d="M261.8,189.8c-3.5,3.5-9.1,3.5-12.6,0l-54.2-54.2c-6.9-6.9-18.1-6.9-25,0-3.3,3.3-5.2,7.8-5.2,12.5s1.8,9.1,5.2,12.5l20.4,20.4c14.1,14.1,14.1,37.1,0,51.2-6.8,6.8-15.9,10.6-25.6,10.6s-18.8-3.8-25.6-10.6l-90.8-90.3,12.6-12.6,90.8,90.3c3.5,3.5,8.1,5.4,13.1,5.4s9.6-1.9,13-5.4c3.5-3.5,5.4-8.1,5.4-13s-1.9-9.6-5.4-13l-20.4-20.4c-13.8-13.8-13.8-36.3,0-50.1,13.8-13.8,36.3-13.8,50.1,0l54.2,54.2c3.5,3.5,3.5,9.1,0,12.6Z"/>
  </g>
  <path class="cls-2" d="M313.1,185.1l-3,3-129.2,129.2c-6,6-15.7,6-21.6,0L26.9,185.1c-6-6-6-15.7,0-21.6l21.6-21.6,12.8-12.8L159.2,31.2c6-5.9,15.7-5.9,21.6,0l132.3,132.3c5.9,6,5.9,15.7,0,21.6Z"/>
  <g>
    <path class="cls-1" d="M393.3,211c3.2,3.5,6.7,6.2,10.6,8.2,3.9,1.9,8,2.9,12.5,2.9s9.4-1.3,12.7-4c3.3-2.7,4.9-6.3,4.9-10.9s-1-7.2-3-9.6c-2-2.4-5-4.6-8.9-6.4-3.9-1.9-8.7-3.9-14.4-6.1-3-1.1-6.5-2.6-10.4-4.4-3.9-1.9-7.6-4.3-11.2-7.3-3.5-3-6.4-6.6-8.7-10.9-2.3-4.3-3.4-9.5-3.4-15.5s1.8-13.5,5.5-18.8c3.7-5.3,8.7-9.3,15.1-12.2,6.3-2.8,13.4-4.3,21.3-4.3s15.1,1.4,20.9,4.1c5.9,2.7,10.8,6.2,14.7,10.3,3.9,4.2,7,8.5,9.2,13l-20.3,11.2c-1.7-3-3.7-5.8-6.1-8.3-2.4-2.5-5.1-4.5-8.1-6-3-1.5-6.5-2.3-10.3-2.3s-8.9,1.2-11.4,3.5c-2.5,2.4-3.8,5.1-3.8,8.3s1,5.9,3.1,8.3c2.1,2.4,5.2,4.6,9.4,6.7,4.2,2.1,9.5,4.3,16,6.4,4.1,1.5,8.1,3.3,11.9,5.4,3.8,2.2,7.3,4.8,10.3,7.9,3.1,3.1,5.5,6.7,7.3,10.9,1.8,4.2,2.6,9,2.6,14.4s-1.2,11.7-3.6,16.5c-2.4,4.8-5.7,8.9-10,12.2-4.2,3.3-9,5.9-14.2,7.6-5.3,1.8-10.8,2.6-16.6,2.6s-15-1.5-21.7-4.4c-6.7-3-12.5-7-17.5-12.1-5-5.1-8.8-10.6-11.6-16.5l18.5-13.1c2.7,4.7,5.6,8.8,8.8,12.3Z"/>
    <path class="cls-1" d="M499.7,199.7c3.8,6.2,8.8,11,15,14.3,6.2,3.3,12.9,5,20.1,5s11.4-.8,16.1-2.4c4.7-1.6,9-3.7,12.8-6.3,3.8-2.7,7.1-5.6,9.9-8.7v29.2c-5.2,4.1-10.9,7.3-17,9.6-6.1,2.3-13.8,3.4-23.1,3.4s-18.7-1.6-26.9-4.7c-8.3-3.1-15.5-7.7-21.6-13.6-6.1-5.9-10.8-12.9-14.1-20.9-3.3-8-5-17-5-26.8s1.7-18.7,5-26.8c3.3-8,8-15,14.1-20.9,6.1-5.9,13.3-10.5,21.6-13.6,8.3-3.1,17.3-4.7,26.9-4.7s17,1.2,23.1,3.4c6.1,2.3,11.8,5.5,17,9.6v29.2c-2.8-3.1-6.1-6-9.9-8.7-3.8-2.7-8.1-4.8-12.8-6.3-4.7-1.6-10.1-2.4-16.1-2.4s-14,1.7-20.1,5c-6.2,3.3-11.2,8.1-15,14.2-3.8,6.2-5.7,13.5-5.7,21.9s1.9,15.6,5.7,21.9Z"/>
    <path class="cls-1" d="M677.3,114.3h94.3v23.4h-34.3v103.6h-25.9v-103.6h-34.1v-23.4Z"/>
    <path class="cls-1" d="M640.3,106.9l-64.4,134.4h29.2l13.3-28.8h43.5l13.4,28.8h29.4l-64.4-134.4ZM624.5,192l15.9-36.5,15.8,36.5h-31.6Z"/>
    <path class="cls-1" d="M854.2,192.2c1.7-.6,3.4-1.3,5-2,7-3.4,12.4-8.1,16.1-14.2,3.7-6.1,5.6-13.1,5.6-21.1s-1.9-15.2-5.6-21.2c-3.7-6-9.1-10.8-16.1-14.1-7-3.4-15.5-5.1-25.6-5.1h-54.1v127h25.9v-46.1h22.8s29.7,46.1,29.7,46.1h30.7l-34.4-49.1ZM843.8,172.3c-3.3,1.5-7.3,2.3-11.9,2.3h-26.5v-38.1h26.5c4.6,0,8.6.8,11.9,2.3,3.3,1.5,5.9,3.7,7.7,6.5,1.8,2.8,2.7,6.3,2.7,10.2s-.9,7.4-2.7,10.2c-1.8,2.8-4.4,5-7.7,6.5Z"/>
  </g>
</svg>